<?xml version="1.0" encoding="utf-8"?>
<!-- Generator: Adobe Illustrator 18.0.0, SVG Export Plug-In . SVG Version: 6.00 Build 0)  -->
<!DOCTYPE svg PUBLIC "-//W3C//DTD SVG 1.1//EN" "http://www.w3.org/Graphics/SVG/1.1/DTD/svg11.dtd">
<svg version="1.1" xmlns="http://www.w3.org/2000/svg" xmlns:xlink="http://www.w3.org/1999/xlink" x="0px" y="0px"
	 viewBox="0 0 555.2 167" enable-background="new 0 0 555.2 167" xml:space="preserve">
<g id="napis_1_">
	<g id="appio">
		<g>
			<path fill-rule="evenodd" clip-rule="evenodd" fill="#151112" d="M248.7,42.1c-8.8,0-17.6,1.3-26.3,3.8v6.9
				c8.7-2.6,17.5-3.8,26.3-3.8c15.5,0,23.3,6.2,23.3,18.5v9.9c-8.6-1-16.6-1.5-24.1-1.5c-21.3,0-32,8-32,24.1
				c0,15.2,9.4,22.8,28.1,22.8c9.5,0,19.3-2.7,29.4-8l1.8,8h4.9V67.2C280,50.5,269.6,42.1,248.7,42.1z M272,108.1
				c-8.9,5.2-18.2,7.8-28.1,7.8c-13.3,0-20-5.4-20-16.1c0-11.3,8-16.9,23.9-16.9c7.5,0,15.6,0.5,24.1,1.5V108.1z M326.1,42.1
				c-11.4,0-21.7,1.1-30.9,3.3v106.7h8.1V119c8.6,2.6,16.1,3.8,22.6,3.8c26,0,39.1-14.1,39.1-42.4C364.9,54.9,352,42.1,326.1,42.1z
				 M325.8,115.2c-6.9,0-14.4-1.4-22.5-4.2V51.2c7.9-1.2,15.5-1.8,22.7-1.8c20.8,0,31.1,10.3,31.1,31
				C357.1,103.5,346.7,115.2,325.8,115.2z M407.2,42.1c-11.4,0-21.7,1.1-30.9,3.3v106.7h8.1V119c8.6,2.6,16.1,3.8,22.6,3.8
				c26,0,39.1-14.1,39.1-42.4C446,54.9,433.1,42.1,407.2,42.1z M406.9,115.2c-6.9,0-14.4-1.4-22.5-4.2V51.2
				c7.9-1.2,15.5-1.8,22.7-1.8c20.8,0,31.1,10.3,31.1,31C438.2,103.5,427.7,115.2,406.9,115.2z M458.9,122.8h8.1V42.1h-8.1V122.8z
				 M517.5,41.3c-25.1,0-37.7,13.7-37.7,41.1c0.1,27.4,12.7,41.1,37.7,41.1c25.1,0,37.7-13.7,37.7-41.1
				C555.2,55,542.6,41.3,517.5,41.3z M517.5,116.7c-19.7,0-29.6-11.5-29.6-34.5c0-22.6,9.9-33.9,29.6-33.9s29.6,11.3,29.6,33.9
				C547.1,105.2,537.2,116.7,517.5,116.7z"/>
		</g>
	</g>
	<g id="tecka">
		<g>
			<ellipse fill-rule="evenodd" clip-rule="evenodd" fill="#151112" cx="462.9" cy="27.2" rx="5.5" ry="5.5"/>
		</g>
	</g>
</g>
<g id="znak_1_">
	<g id="outer">
		<g>
			<path fill-rule="evenodd" clip-rule="evenodd" fill="#151112" d="M94.5,0C26.9,87.3,0,167,0,167c106.1-52.6,188.9,0,188.9,0
				C168.8,99.3,94.5,0,94.5,0z M43.5,131c0,0,18.6-49.1,51-90.1c0,0,46.6,66.9,50.9,90.1C145.4,131,101.8,102.6,43.5,131z"/>
		</g>
	</g>
	<g id="inner">
		<g>
			<path fill-rule="evenodd" clip-rule="evenodd" fill="#151112" d="M93.3,58.7c-22.9,29.5-32.1,56.4-32.1,56.4
				c36-17.8,64.2,0,64.2,0C118.5,92.3,93.3,58.7,93.3,58.7z"/>
		</g>
	</g>
</g>
</svg>
