<?xml version="1.0" encoding="utf-8"?>
<!-- Generator: Adobe Illustrator 18.0.0, SVG Export Plug-In . SVG Version: 6.00 Build 0)  -->
<!DOCTYPE svg PUBLIC "-//W3C//DTD SVG 1.1//EN" "http://www.w3.org/Graphics/SVG/1.1/DTD/svg11.dtd">
<svg version="1.1" id="Layer_1" xmlns="http://www.w3.org/2000/svg" xmlns:xlink="http://www.w3.org/1999/xlink" x="0px" y="0px"
	 viewBox="0 0 199.7 45.6" enable-background="new 0 0 199.7 45.6" xml:space="preserve">
<path fill="#76B82A" d="M99.8,45.6c77.2,0,99.8-10.2,99.8-22.8C199.7,10.2,177,0,99.8,0C22.6,0,0,10.2,0,22.8
	C0,35.4,22.6,45.6,99.8,45.6L99.8,45.6z"/>
<path fill="#FFFFFF" d="M15.4,33.1h6.4v-1h-2.6v-7.7h5l0.2,2.5h1.1v-6.1h-1.1l-0.2,2.5h-5v-8h8.6l0.2,3.5h1.2v-4.6H15.4v1h1.2
	c0.5,0,0.9,0.5,0.9,0.9v14.9c0,0.4-0.5,0.9-0.9,0.9h-1.2V33.1L15.4,33.1z M39.3,33.2c4.7,0,8.7-3.3,8.7-9.5c0-6.2-4-9.5-8.7-9.5
	c-4.7,0-8.8,3.3-8.8,9.5C30.6,29.9,34.6,33.2,39.3,33.2L39.3,33.2z M39.3,32.1c-4,0-7-2.8-7-8.4c0-5.5,3.1-8.4,7-8.4
	c3.9,0,7,2.9,7,8.4C46.3,29.2,43.3,32.1,39.3,32.1L39.3,32.1z M53.9,33.1h6.3v-1h-1.4c-0.5,0-0.9-0.5-0.9-0.9V15.4h5.4l0.2,4.1h1.2
	v-5.1H49.4v5.1h1.2l0.2-4.1h5.4v15.8c0,0.4-0.5,0.9-0.9,0.9h-1.4V33.1L53.9,33.1z M74.8,33.2c4.7,0,8.7-3.3,8.7-9.5
	c0-6.2-4-9.5-8.7-9.5c-4.7,0-8.8,3.3-8.8,9.5C66.1,29.9,70.1,33.2,74.8,33.2L74.8,33.2z M74.8,32.1c-4,0-7-2.8-7-8.4
	c0-5.5,3.1-8.4,7-8.4c3.9,0,7,2.9,7,8.4C81.8,29.2,78.8,32.1,74.8,32.1L74.8,32.1z M84.8,33.1h8.9v-2.7h-2.2v-4.2h1.6
	c5,0,7.9-1.8,7.9-5.9c0-4.2-2.7-5.9-7.7-5.9h-8.5v2.8h0.9c0.4,0,0.8,0.5,0.8,0.8v11.6c0,0.3-0.4,0.8-0.8,0.8h-0.9V33.1L84.8,33.1z
	 M91.5,23.4v-6.1H93c2.2,0,2.8,1.3,2.8,3c0,1.8-0.6,3.1-2.8,3.1H91.5L91.5,23.4z M99.4,33.1h7.5v-2.7H106c-1.3,0-1.4-0.9-0.9-2.4
	l0.2-0.6h6.1l1,3.1H110v2.7h8.7v-2.7h-0.6c-0.3,0-0.8-0.3-0.9-0.7l-5-15.4h-8.9v2.8h1.2c0.4,0,0.6,0.4,0.5,0.8l-4.1,11.6
	c-0.2,0.5-0.6,0.8-1,0.8h-0.5V33.1L99.4,33.1z M106.2,24.7l2.3-6.6h0.1l2.1,6.6H106.2L106.2,24.7z M125.9,33.3c4.8,0,7.1-2.1,7.1-6
	c0-3.5-1.7-4.7-5.6-5.7c-1.9-0.5-3.5-0.8-3.5-2.5c0-1.4,1-2.1,2.7-2.1c0.9,0,1.5,0.1,2,0.3l0.4,2.2h3.3v-5.2h-3.2
	c-0.6-0.1-1.6-0.2-3.1-0.2c-4,0-6.7,1.8-6.7,5.7c0,3.5,2,4.8,4.6,5.5c2.3,0.7,4.2,0.9,4.2,2.7c0,1.4-0.9,2.2-2.8,2.2
	c-1.1,0-1.7-0.1-2.2-0.3l-0.4-2.7h-3.4v5.8h3.6C123.7,33.2,124.7,33.3,125.9,33.3L125.9,33.3z M137.6,33.1h8.7v-2.7h-1.1
	c-0.3,0-0.8-0.5-0.8-0.8V17.2h2.4l0.4,3.7h3.1v-6.6h-16.7V21h3.1l0.3-3.7h2.3v12.3c0,0.3-0.4,0.8-0.8,0.8h-1V33.1L137.6,33.1z
	 M152.7,33.2c0.6,0,1.1-0.5,1.1-1.1c0-0.6-0.5-1.1-1.1-1.1c-0.6,0-1.1,0.5-1.1,1.1C151.6,32.7,152,33.2,152.7,33.2L152.7,33.2z
	 M162.6,33.2c3.3,0,5.1-1,6.6-2.4v-1.2h-0.9c-1,1.4-2.7,2.5-5.6,2.5c-4.2,0-6.9-2.8-6.9-8.5c0-5.8,3.2-8.3,7.1-8.3
	c2.1,0,3.6,0.8,4.4,1.5l0.3,2.8h1.2v-5.3h-1.1c0,0.4-0.3,0.8-0.5,0.8c-0.7-0.3-1.9-0.9-4.3-0.9c-4.9,0-8.8,3.1-8.8,9.4
	C154,30,157.5,33.2,162.6,33.2L162.6,33.2z M170.6,33.1H184v-4.6h-1.2l-0.2,3.6h-10.1v0l11.9-16.5v-1.2h-12.9v4.4h1.1l0.3-3.4h9.7
	v0.1l-11.8,16.5V33.1L170.6,33.1z"/>
<path fill="#76B82A" d="M195.8,7.3h0.4c0.4,0,0.6,0.2,0.7,0.5c0.1,0.4,0.2,0.6,0.3,0.8h0.8c-0.1-0.1-0.1-0.3-0.2-0.8
	c-0.1-0.4-0.3-0.7-0.6-0.8v0c0.4-0.1,0.7-0.4,0.7-0.8c0-0.3-0.1-0.5-0.3-0.7c-0.2-0.2-0.5-0.3-1.1-0.3c-0.5,0-0.9,0.1-1.2,0.1v3.2
	h0.7V7.3L195.8,7.3z M195.8,5.9c0.1,0,0.2,0,0.4,0c0.5,0,0.7,0.2,0.7,0.5c0,0.3-0.3,0.5-0.7,0.5h-0.4V5.9L195.8,5.9z M196.3,3.7
	c-1.8,0-3.3,1.4-3.3,3.2c0,1.8,1.5,3.2,3.3,3.2c1.9,0,3.3-1.4,3.3-3.2C199.6,5.1,198.1,3.7,196.3,3.7L196.3,3.7L196.3,3.7z
	 M196.3,4.3c1.4,0,2.5,1.2,2.5,2.6c0,1.4-1,2.6-2.5,2.6c-1.5,0-2.5-1.1-2.5-2.6C193.8,5.5,194.8,4.3,196.3,4.3L196.3,4.3L196.3,4.3z
	"/>
</svg>
