<?xml version="1.0" encoding="utf-8"?>
<!-- Generator: Adobe Illustrator 18.1.0, SVG Export Plug-In . SVG Version: 6.00 Build 0)  -->
<svg version="1.1" id="Layer_1" xmlns="http://www.w3.org/2000/svg" xmlns:xlink="http://www.w3.org/1999/xlink" x="0px" y="0px"
	 viewBox="1.4 345.4 610.2 101" enable-background="new 1.4 345.4 610.2 101" xml:space="preserve">
<g>
	<g>
		<g>
			<path id="SVGID_1_" fill="#F3F3F3" d="M337.9,379.3c-0.7,1.8-0.8,3.4-0.4,4.7c0.4,1.4,1.2,2.4,2.4,3.3c1.4,0.8,3,1.2,5.2,1.2
				c2.2,0,4.2-0.4,6.1-1.2c1.9-0.8,3.5-1.9,4.9-3.3c1.4-1.4,2.3-3,3-4.7c0.7-1.9,0.8-3.5,0.5-4.9c-0.4-1.4-1.2-2.4-2.4-3.3
				c-1.4-0.8-3-1.2-5.2-1.2c-2.2,0-4.2,0.4-6.1,1.2c-1.9,0.8-3.5,1.9-4.9,3.3C339.7,375.8,338.7,377.4,337.9,379.3 M365.8,430.7
				c-1.9,0-3.7,0.3-5.3,0.8c-1.6,0.5-3.1,1.4-4.3,2.4c-1.2,1.1-2.2,2.4-2.7,4.1c-0.5,1.6-0.7,2.8-0.1,3.9c0.4,1.1,1.2,1.9,2.6,2.4
				c1.2,0.5,2.8,0.8,4.6,0.8h22.1c5.4,0,10.3-0.7,14.7-2s8-3.4,11-6.2c3-2.7,5.3-6.1,6.8-10.3c0.8-2.2,0.9-4.1,0.5-5.7
				c-0.4-1.6-1.2-2.8-2.6-3.9c-1.4-1.1-2.8-1.9-4.7-2.6s-3.8-1.2-5.8-1.6c-2-0.4-4.1-0.7-6.1-0.9c-2-0.3-3.8-0.5-5.4-0.8
				c-1.6-0.3-2.8-0.5-3.7-0.9c-0.8-0.4-1.2-0.8-0.9-1.4c0.3-0.5,0.5-0.9,1.1-1.2s1.1-0.4,1.9-0.4c0.7,0,1.4-0.1,2,0h18.5
				c1.8,0,3.5-0.3,5.2-0.8c1.6-0.5,3-1.4,4.2-2.4c1.2-1.1,2-2.3,2.6-3.7c0.5-1.6,0.7-2.8,0.1-3.9c-0.4-1.1-1.2-1.8-2.4-2.3
				s-2.7-0.8-4.5-0.8h-18.5c-3.5,0-6.9,0.3-10.2,0.9c-3.3,0.7-6.2,1.6-9.1,3c-2.8,1.4-5.2,3.3-7.3,5.4c-2,2.2-3.8,5-4.9,8.1
				c-0.8,2.2-0.9,3.9-0.5,5.6c0.4,1.5,1.4,2.7,2.6,3.8c1.4,0.9,2.8,1.8,4.7,2.4s3.8,1.1,6,1.5c2,0.4,4.2,0.7,6.1,0.9
				c2,0.3,3.8,0.5,5.4,0.7c1.6,0.3,2.8,0.5,3.7,0.9c0.8,0.4,1.2,0.9,0.9,1.6s-0.8,1.4-1.4,1.6c-0.7,0.4-1.5,0.7-2.3,0.7
				c-0.9,0.1-1.9,0.1-2.8,0.1h-21.6V430.7z M448.6,379.3c-0.7,1.8-0.8,3.4-0.4,4.7c0.4,1.4,1.2,2.4,2.4,3.3c1.4,0.8,3,1.2,5.2,1.2
				c2.2,0,4.2-0.4,6.1-1.2c1.9-0.8,3.5-1.9,4.9-3.3c1.4-1.4,2.3-3,3-4.7c0.7-1.9,0.8-3.5,0.5-4.9c-0.4-1.4-1.2-2.4-2.4-3.3
				c-1.4-0.8-3-1.2-5.2-1.2c-2.2,0-4.2,0.4-6.1,1.2c-1.9,0.8-3.5,1.9-4.9,3.3C450.2,375.8,449.3,377.4,448.6,379.3z M460.7,402
				c0.7-1.8,0.8-3.4,0.7-4.7c-0.3-1.4-0.9-2.6-2.2-3.3c-1.2-0.8-2.8-1.2-5-1.2c-2.2,0-4.2,0.4-6,1.2c-1.8,0.8-3.3,1.9-4.6,3.3
				c-1.2,1.4-2.2,3-2.8,4.7l-12.6,34.3c-0.7,1.8-0.8,3.4-0.7,4.7c0.3,1.4,0.9,2.6,2.2,3.4c1.2,0.8,2.8,1.2,5,1.2
				c2.2,0,4.2-0.4,6-1.2c1.8-0.8,3.3-1.9,4.6-3.4c1.2-1.4,2.2-3,2.8-4.7L460.7,402z M534.4,419.3c1.5-3.9,2-7.6,1.8-10.7
				c-0.3-3.3-1.4-6.1-3.1-8.4c-1.9-2.4-4.5-4.2-7.9-5.4c-3.4-1.4-7.3-1.9-12.1-1.9c-4.7,0-9.2,0.7-13.4,1.9
				c-4.3,1.2-8.3,3.1-11.8,5.4c-3.7,2.3-6.8,5.2-9.5,8.4c-2.7,3.3-4.7,6.8-6.2,10.7c-1.5,3.9-2,7.6-1.8,10.7
				c0.3,3.3,1.4,6.1,3.3,8.4c1.9,2.3,4.5,4.2,7.9,5.4c3.4,1.4,7.3,1.9,12.1,1.9c4.7,0,9.2-0.7,13.6-1.9c4.3-1.2,8.3-3.1,11.8-5.4
				c3.5-2.3,6.8-5.2,9.4-8.4C530.9,426.8,532.9,423.3,534.4,419.3z M507.6,407.3c2,0,3.5,0.4,4.6,1.1s1.8,1.6,2.2,2.8
				s0.4,2.4,0.3,3.9c-0.1,1.4-0.5,2.8-1.1,4.2c-0.5,1.5-1.2,2.8-2,4.2c-0.8,1.4-1.9,2.7-3.1,3.9s-2.7,2.2-4.3,2.8s-3.4,1.1-5.4,1.1
				c-2,0-3.5-0.4-4.6-1.1s-1.8-1.6-2.2-2.8c-0.4-1.2-0.4-2.4-0.3-3.9c0.1-1.4,0.5-2.8,1.1-4.2c0.5-1.5,1.2-2.8,2-4.2
				c0.8-1.4,1.9-2.7,3.1-3.9s2.7-2.2,4.3-2.8C503.8,407.5,505.6,407.3,507.6,407.3z M545.1,436.3c-0.7,1.8-0.8,3.4-0.7,4.7
				c0.3,1.4,0.9,2.6,2.2,3.4c1.2,0.8,2.8,1.2,5,1.2c2.2,0,4.2-0.4,6-1.2c1.8-0.8,3.3-1.9,4.6-3.4c1.2-1.4,2.2-3,2.8-4.7l8.3-22.4
				c0.8-2.3,2.2-3.9,3.9-5c1.8-1.1,3.9-1.6,6.2-1.6c2.4,0,4.1,0.5,5,1.6c0.9,1.1,1.1,2.8,0.3,5l-8.3,22.4c-0.7,1.8-0.8,3.4-0.7,4.7
				c0.3,1.4,0.9,2.6,2.2,3.4c1.2,0.8,2.8,1.2,5,1.2c2.2,0,4.2-0.4,6-1.2c1.8-0.8,3.3-1.9,4.6-3.4c1.2-1.4,2.2-3,2.8-4.7l9.9-26.9
				c1.1-3.1,1.5-5.7,0.9-7.9c-0.4-2.2-1.5-3.9-3-5.2c-1.5-1.4-3.4-2.3-5.7-2.8c-2.2-0.5-4.6-0.9-7.1-0.9c-3.1,0-6.1,0.5-9,1.6
				c-3,1.1-5.8,2.4-9,4.3c0-0.8-0.3-1.8-0.5-2.6c-0.3-0.9-0.9-1.6-1.9-2.3c-0.9-0.7-2.3-0.9-4.1-0.9c-1.8,0-3.5,0.3-5.3,0.8
				c-1.6,0.5-3.3,1.4-4.5,2.6c-1.4,1.1-2.3,2.6-3,4.3L545.1,436.3z M312.4,361.5C303,389.2,292,414.5,279,439c-5,9.4-16.4,6.6-22,0
				c-19.3-22.8-32.4-64.9-66.8-71.1c-16.7-3-29.4,2-40.3,13.3c-9.2,9.6-21.4-5-13.4-13.2c15.5-16,34.1-21.4,56.5-18
				c36.1,5.7,57.1,44,72.7,69.3c0.7,1.1,1.5,0.8,2,0c10.9-16.1,20.2-44.1,27-63.8C298.8,343.9,315.9,350.7,312.4,361.5z
				 M191.7,403.2c2-6,2.6-11.5-2.4-16.3C198.3,389.2,197.6,397.8,191.7,403.2z M183.5,381.6c8.7,0,15.7,7.1,15.7,15.7
				c0,8.7-7.1,15.7-15.7,15.7c-8.7,0-15.7-7.1-15.7-15.7S174.8,381.6,183.5,381.6z M173.4,426.8c15.1,2.7,29.3-3.7,40.3-13.6
				c12.2-11.1,23.5,4.2,13.2,13.4c-15.3,13.7-35.7,22.3-56.2,17.8c-26.1-5.7-46.8-23.5-58.4-48.6c-2-4.2-3.5-8.1-3.5,0.4v1.1
				c0,65.3-107.5,65.5-107.5,0v-42.7c0-5,4.2-9.2,9.2-9.2s9.2,4.2,9.2,9.2c0,15.1,0,27.8,0,42.9c0,40.4,70.4,40.4,70.4,0
				c0-17.1,0-25.8,0-42.9c0-6.2,4.2-9.2,9.2-9.2l0,0c5.3,0,8.3,5.3,10.7,9.2C122.3,374.7,138.1,420.4,173.4,426.8z M350.1,402
				c0.7-1.8,0.8-3.4,0.7-4.7c-0.3-1.4-0.9-2.6-2.2-3.3c-1.2-0.8-2.8-1.2-5-1.2s-4.2,0.4-6,1.2s-3.3,1.9-4.6,3.3
				c-1.2,1.4-2.2,3-2.8,4.7l-12.6,34.3c-0.7,1.8-0.8,3.4-0.7,4.7c0.3,1.4,0.9,2.6,2.2,3.4c1.2,0.8,2.8,1.2,5,1.2s4.2-0.4,6-1.2
				c1.8-0.8,3.3-1.9,4.6-3.4c1.2-1.4,2.2-3,2.8-4.7L350.1,402z"/>
		</g>
		<g>
			<defs>
				<path id="SVGID_2_" d="M337.9,379.3c-0.7,1.8-0.8,3.4-0.4,4.7c0.4,1.4,1.2,2.4,2.4,3.3c1.4,0.8,3,1.2,5.2,1.2
					c2.2,0,4.2-0.4,6.1-1.2c1.9-0.8,3.5-1.9,4.9-3.3c1.4-1.4,2.3-3,3-4.7c0.7-1.9,0.8-3.5,0.5-4.9c-0.4-1.4-1.2-2.4-2.4-3.3
					c-1.4-0.8-3-1.2-5.2-1.2c-2.2,0-4.2,0.4-6.1,1.2c-1.9,0.8-3.5,1.9-4.9,3.3C339.7,375.8,338.7,377.4,337.9,379.3 M365.8,430.7
					c-1.9,0-3.7,0.3-5.3,0.8c-1.6,0.5-3.1,1.4-4.3,2.4c-1.2,1.1-2.2,2.4-2.7,4.1c-0.5,1.6-0.7,2.8-0.1,3.9c0.4,1.1,1.2,1.9,2.6,2.4
					c1.2,0.5,2.8,0.8,4.6,0.8h22.1c5.4,0,10.3-0.7,14.7-2s8-3.4,11-6.2c3-2.7,5.3-6.1,6.8-10.3c0.8-2.2,0.9-4.1,0.5-5.7
					c-0.4-1.6-1.2-2.8-2.6-3.9c-1.4-1.1-2.8-1.9-4.7-2.6s-3.8-1.2-5.8-1.6c-2-0.4-4.1-0.7-6.1-0.9c-2-0.3-3.8-0.5-5.4-0.8
					c-1.6-0.3-2.8-0.5-3.7-0.9c-0.8-0.4-1.2-0.8-0.9-1.4c0.3-0.5,0.5-0.9,1.1-1.2s1.1-0.4,1.9-0.4c0.7,0,1.4-0.1,2,0h18.5
					c1.8,0,3.5-0.3,5.2-0.8c1.6-0.5,3-1.4,4.2-2.4c1.2-1.1,2-2.3,2.6-3.7c0.5-1.6,0.7-2.8,0.1-3.9c-0.4-1.1-1.2-1.8-2.4-2.3
					s-2.7-0.8-4.5-0.8h-18.5c-3.5,0-6.9,0.3-10.2,0.9c-3.3,0.7-6.2,1.6-9.1,3c-2.8,1.4-5.2,3.3-7.3,5.4c-2,2.2-3.8,5-4.9,8.1
					c-0.8,2.2-0.9,3.9-0.5,5.6c0.4,1.5,1.4,2.7,2.6,3.8c1.4,0.9,2.8,1.8,4.7,2.4s3.8,1.1,6,1.5c2,0.4,4.2,0.7,6.1,0.9
					c2,0.3,3.8,0.5,5.4,0.7c1.6,0.3,2.8,0.5,3.7,0.9c0.8,0.4,1.2,0.9,0.9,1.6s-0.8,1.4-1.4,1.6c-0.7,0.4-1.5,0.7-2.3,0.7
					c-0.9,0.1-1.9,0.1-2.8,0.1h-21.6V430.7z M448.6,379.3c-0.7,1.8-0.8,3.4-0.4,4.7c0.4,1.4,1.2,2.4,2.4,3.3c1.4,0.8,3,1.2,5.2,1.2
					c2.2,0,4.2-0.4,6.1-1.2c1.9-0.8,3.5-1.9,4.9-3.3c1.4-1.4,2.3-3,3-4.7c0.7-1.9,0.8-3.5,0.5-4.9c-0.4-1.4-1.2-2.4-2.4-3.3
					c-1.4-0.8-3-1.2-5.2-1.2c-2.2,0-4.2,0.4-6.1,1.2c-1.9,0.8-3.5,1.9-4.9,3.3C450.2,375.8,449.3,377.4,448.6,379.3z M460.7,402
					c0.7-1.8,0.8-3.4,0.7-4.7c-0.3-1.4-0.9-2.6-2.2-3.3c-1.2-0.8-2.8-1.2-5-1.2c-2.2,0-4.2,0.4-6,1.2c-1.8,0.8-3.3,1.9-4.6,3.3
					c-1.2,1.4-2.2,3-2.8,4.7l-12.6,34.3c-0.7,1.8-0.8,3.4-0.7,4.7c0.3,1.4,0.9,2.6,2.2,3.4c1.2,0.8,2.8,1.2,5,1.2
					c2.2,0,4.2-0.4,6-1.2c1.8-0.8,3.3-1.9,4.6-3.4c1.2-1.4,2.2-3,2.8-4.7L460.7,402z M534.4,419.3c1.5-3.9,2-7.6,1.8-10.7
					c-0.3-3.3-1.4-6.1-3.1-8.4c-1.9-2.4-4.5-4.2-7.9-5.4c-3.4-1.4-7.3-1.9-12.1-1.9c-4.7,0-9.2,0.7-13.4,1.9
					c-4.3,1.2-8.3,3.1-11.8,5.4c-3.7,2.3-6.8,5.2-9.5,8.4c-2.7,3.3-4.7,6.8-6.2,10.7c-1.5,3.9-2,7.6-1.8,10.7
					c0.3,3.3,1.4,6.1,3.3,8.4c1.9,2.3,4.5,4.2,7.9,5.4c3.4,1.4,7.3,1.9,12.1,1.9c4.7,0,9.2-0.7,13.6-1.9c4.3-1.2,8.3-3.1,11.8-5.4
					c3.5-2.3,6.8-5.2,9.4-8.4C530.9,426.8,532.9,423.3,534.4,419.3z M507.6,407.3c2,0,3.5,0.4,4.6,1.1s1.8,1.6,2.2,2.8
					s0.4,2.4,0.3,3.9c-0.1,1.4-0.5,2.8-1.1,4.2c-0.5,1.5-1.2,2.8-2,4.2c-0.8,1.4-1.9,2.7-3.1,3.9s-2.7,2.2-4.3,2.8s-3.4,1.1-5.4,1.1
					c-2,0-3.5-0.4-4.6-1.1s-1.8-1.6-2.2-2.8c-0.4-1.2-0.4-2.4-0.3-3.9c0.1-1.4,0.5-2.8,1.1-4.2c0.5-1.5,1.2-2.8,2-4.2
					c0.8-1.4,1.9-2.7,3.1-3.9s2.7-2.2,4.3-2.8C503.8,407.5,505.6,407.3,507.6,407.3z M545.1,436.3c-0.7,1.8-0.8,3.4-0.7,4.7
					c0.3,1.4,0.9,2.6,2.2,3.4c1.2,0.8,2.8,1.2,5,1.2c2.2,0,4.2-0.4,6-1.2c1.8-0.8,3.3-1.9,4.6-3.4c1.2-1.4,2.2-3,2.8-4.7l8.3-22.4
					c0.8-2.3,2.2-3.9,3.9-5c1.8-1.1,3.9-1.6,6.2-1.6c2.4,0,4.1,0.5,5,1.6c0.9,1.1,1.1,2.8,0.3,5l-8.3,22.4c-0.7,1.8-0.8,3.4-0.7,4.7
					c0.3,1.4,0.9,2.6,2.2,3.4c1.2,0.8,2.8,1.2,5,1.2c2.2,0,4.2-0.4,6-1.2c1.8-0.8,3.3-1.9,4.6-3.4c1.2-1.4,2.2-3,2.8-4.7l9.9-26.9
					c1.1-3.1,1.5-5.7,0.9-7.9c-0.4-2.2-1.5-3.9-3-5.2c-1.5-1.4-3.4-2.3-5.7-2.8c-2.2-0.5-4.6-0.9-7.1-0.9c-3.1,0-6.1,0.5-9,1.6
					c-3,1.1-5.8,2.4-9,4.3c0-0.8-0.3-1.8-0.5-2.6c-0.3-0.9-0.9-1.6-1.9-2.3c-0.9-0.7-2.3-0.9-4.1-0.9c-1.8,0-3.5,0.3-5.3,0.8
					c-1.6,0.5-3.3,1.4-4.5,2.6c-1.4,1.1-2.3,2.6-3,4.3L545.1,436.3z M312.4,361.5C303,389.2,292,414.5,279,439c-5,9.4-16.4,6.6-22,0
					c-19.3-22.8-32.4-64.9-66.8-71.1c-16.7-3-29.4,2-40.3,13.3c-9.2,9.6-21.4-5-13.4-13.2c15.5-16,34.1-21.4,56.5-18
					c36.1,5.7,57.1,44,72.7,69.3c0.7,1.1,1.5,0.8,2,0c10.9-16.1,20.2-44.1,27-63.8C298.8,343.9,315.9,350.7,312.4,361.5z
					 M191.7,403.2c2-6,2.6-11.5-2.4-16.3C198.3,389.2,197.6,397.8,191.7,403.2z M183.5,381.6c8.7,0,15.7,7.1,15.7,15.7
					c0,8.7-7.1,15.7-15.7,15.7c-8.7,0-15.7-7.1-15.7-15.7S174.8,381.6,183.5,381.6z M173.4,426.8c15.1,2.7,29.3-3.7,40.3-13.6
					c12.2-11.1,23.5,4.2,13.2,13.4c-15.3,13.7-35.7,22.3-56.2,17.8c-26.1-5.7-46.8-23.5-58.4-48.6c-2-4.2-3.5-8.1-3.5,0.4v1.1
					c0,65.3-107.5,65.5-107.5,0v-42.7c0-5,4.2-9.2,9.2-9.2s9.2,4.2,9.2,9.2c0,15.1,0,27.8,0,42.9c0,40.4,70.4,40.4,70.4,0
					c0-17.1,0-25.8,0-42.9c0-6.2,4.2-9.2,9.2-9.2l0,0c5.3,0,8.3,5.3,10.7,9.2C122.3,374.7,138.1,420.4,173.4,426.8z M350.1,402
					c0.7-1.8,0.8-3.4,0.7-4.7c-0.3-1.4-0.9-2.6-2.2-3.3c-1.2-0.8-2.8-1.2-5-1.2s-4.2,0.4-6,1.2s-3.3,1.9-4.6,3.3
					c-1.2,1.4-2.2,3-2.8,4.7l-12.6,34.3c-0.7,1.8-0.8,3.4-0.7,4.7c0.3,1.4,0.9,2.6,2.2,3.4c1.2,0.8,2.8,1.2,5,1.2s4.2-0.4,6-1.2
					c1.8-0.8,3.3-1.9,4.6-3.4c1.2-1.4,2.2-3,2.8-4.7L350.1,402z"/>
			</defs>
			<use xlink:href="#SVGID_2_"  overflow="visible" fill="#F3F3F3"/>
			<clipPath id="SVGID_3_">
				<use xlink:href="#SVGID_2_"  overflow="visible"/>
			</clipPath>
			<line clip-path="url(#SVGID_3_)" fill="#F3F3F3" x1="826" y1="652.2" x2="854.8" y2="377.8"/>
		</g>
	</g>
</g>
</svg>
